<svg id="Calque_1" data-name="Calque 1" xmlns="http://www.w3.org/2000/svg" viewBox="0 0 268.72 564.24"><defs><style>.cls-1{fill:#fff;}</style></defs><path class="cls-1" d="M145,588.57l-5.57,4.37c-7.38,2.35-14.65,2.27-21.77-1L112.57,586c-3.91-6.54-4.82-13.34-1.16-20.22,1.51-2.83,3.77-5.27,5.68-7.89l-.19.15c1.52-.58,3-1.12,4.54-1.75A19.25,19.25,0,0,1,146,564.83c-3.4-3.46-6-3.79-8.47.16,5.33,2.74,7.06,7.6,7.95,13.53,1.08-2.62,2.15-5.24,3.54-8.61,0,3.05.46,5.45-.1,7.59C147.9,581.28,146.3,584.89,145,588.57ZM127.29,593c-7-5.06-11.27-10.47-11.44-18.37-.19-8.23,4.84-13.11,11.94-17.54-10.43,1.18-16.71,7.92-17.12,17.32S116.45,591.09,127.29,593Z" transform="translate(-22.09 -30.33)"/><path class="cls-1" d="M171.05,360.72c-33.12-1.61-58.31-15.67-73.18-45-14.74-29.09-11.8-57.61,6.29-84.68,2.21-3.31,4-4.47,8.39-2.85A30,30,0,0,0,152.92,203c.35-3.41,1.69-4.44,4.73-4.94,43.14-7.15,85.51,22.89,93.19,66.12,7.86,44.33-21.64,87.14-65.43,94.82C180.51,359.87,175.51,360.2,171.05,360.72Zm5-8.15c46.73-6.08,76-43.1,69-87.45-6-38-40.56-63.59-75.85-61.62,12.35,6.15,23.79,12.86,33,22.76,15.57,16.83,24.56,36.3,23.19,59.65s-13.19,40.74-31.12,54.55C188.59,344.79,182.4,348.37,176.05,352.57Zm-33.79-30.42c-25.5-11.37-36.69-30.36-32.45-58.11a46.75,46.75,0,0,0-6.2,7A41.84,41.84,0,0,0,122,334.6c1.63.65,4.28,1.09,5.41.23C132.39,331,137,326.73,142.26,322.15Z" transform="translate(-22.09 -30.33)"/><path class="cls-1" d="M99,214.87c-9.6-11.42-5.38-31.09,8.53-39.8A28.79,28.79,0,0,1,140.3,222.3c-11.87,9.19-29.53,7.5-39.27-3.82a23.58,23.58,0,0,1-2.22-3.78c1.19,1.17,2.31,2.4,3.56,3.47,5.39,4.62,7.89,4.15,11.65-2.44-8.55-2.68-13.06-8.6-13.18-18.42C95.86,203.41,96.71,209.08,99,214.87Zm30.6,9.1a25.55,25.55,0,0,0,19.29-30c-2.51-13.32-15.21-22.59-28.27-20.63C147.85,185.29,147.34,210,129.58,224Z" transform="translate(-22.09 -30.33)"/><path class="cls-1" d="M78,137.58C50.36,139.85,24.89,117,22.28,87.46c-2.55-28.87,20.29-55.18,50.78-57s54.86,21.69,56.44,50.83A53.56,53.56,0,0,1,78,137.58ZM74.66,35.82c-34.43,2.18-50,28.91-48.55,52,1.57,24.66,22.62,45.56,46.57,45.55-19.45-11.5-32.45-27-32.67-50.1C39.77,59.22,54.87,45.67,74.66,35.82Zm41.77,59.4c14.82-11.61,12.51-36-5.47-45-1.18-.59-3.14-1.12-4-.56-3.42,2.14-6.55,4.73-8.65,6.31C103.52,62,109.89,67,112.84,73.58S115.43,88.37,116.43,95.22Z" transform="translate(-22.09 -30.33)"/><path class="cls-1" d="M246.05,191.91a45,45,0,0,1-44.78-44.86c0-24.52,20.45-44.79,45-44.6a44.73,44.73,0,0,1-.23,89.46Zm-2-84.43c-22.55.55-39.77,18.43-39.47,40.5.29,21.74,17.41,39.92,38.57,40.14-16.1-9.45-26.59-22.27-27-41C215.63,127.4,227.68,115.86,244.06,107.48Zm34.36,50.3c13.15-12.24,11.4-30.79-2.44-38.25-1.45-.78-4-.48-5.62.26-2.34,1.06-4.29,3-6.9,4.9C276.38,131.84,281.68,142.31,278.42,157.78Z" transform="translate(-22.09 -30.33)"/><path class="cls-1" d="M228.62,473.47c.13,6.25-4.2,9.82-8.32,13.31-10.34,8.78-26.3,8.4-36.67-.65a28.91,28.91,0,0,1-5.31-37.54c7.19-11.39,22.55-16.09,35.17-10.77a28.17,28.17,0,0,1,16.73,32.93c-2.51-9.79-2.51-9.79-9.56-8.89,2.73,8.38.71,15.51-6.35,21.28C221.63,483.09,226.3,480,228.62,473.47Zm-9.47-29c-13.62-9.29-27.55-8.15-36.9,2.31-9.1,10.18-8.92,24.46.45,35.27C175.79,455.61,193.69,437.39,219.15,444.51Z" transform="translate(-22.09 -30.33)"/><path class="cls-1" d="M179.14,525.5c-6.4-6.38-8.93-13.83-6.57-22.48s8.15-13.82,16.76-16a1.6,1.6,0,0,1,2.21,1,8.2,8.2,0,0,0,12.77,2.3,1.28,1.28,0,0,1,1.86-.14,22.27,22.27,0,0,1-23.81,37.63C181.21,527.06,180.14,526.22,179.14,525.5Zm2.5-.73c10.57,7.31,23.25,5.17,30-5.08a20.06,20.06,0,0,0-4.08-26.33A30,30,0,0,1,210,504c.08,6.25-1.66,11.83-6.21,16.3s-10.12,5.83-16.27,5.35C185.6,525.49,183.7,525.08,181.64,524.77Zm-1.27-12.33c-3.08-7-1.87-12.85,4.06-17.69a13.72,13.72,0,0,0-2.53.27,11.41,11.41,0,0,0-7.9,16.23c.21.43.66,1,1.05,1C176.75,512.43,178.47,512.4,180.37,512.44Z" transform="translate(-22.09 -30.33)"/><path class="cls-1" d="M115.21,420a34.48,34.48,0,1,1,34.5-34.58A34.66,34.66,0,0,1,115.21,420Zm-1.54-65.08a30.73,30.73,0,0,0-30.43,31.22c.23,16.76,13.43,30.77,29.74,30.94-12.41-7.29-20.5-17.17-20.85-31.59C91.76,370.27,101.05,361.38,113.67,354.92Zm26.49,38.77c10.14-9.43,8.79-23.73-1.88-29.49a5.64,5.64,0,0,0-4.33.2c-1.81.83-3.31,2.31-5.32,3.78C138.58,373.69,142.67,381.77,140.16,393.69Z" transform="translate(-22.09 -30.33)"/></svg>