<svg id="Calque_1" data-name="Calque 1" xmlns="http://www.w3.org/2000/svg" viewBox="0 0 267.35 560.37"><defs><style>.cls-1{fill:#fff;}</style></defs><path class="cls-1" d="M247,419.57l-5.57,4.37c-7.38,2.35-14.65,2.27-21.77-1L214.57,417c-3.91-6.54-4.82-13.34-1.16-20.22,1.51-2.83,3.77-5.27,5.68-7.89l-.19.15c1.52-.58,3-1.12,4.54-1.75A19.25,19.25,0,0,1,248,395.83c-3.4-3.46-6-3.79-8.47.16,5.33,2.74,7.06,7.6,7.95,13.53,1.08-2.62,2.15-5.24,3.54-8.61,0,3,.46,5.45-.1,7.59C249.9,412.28,248.3,415.89,247,419.57ZM229.29,424c-7-5.06-11.27-10.47-11.44-18.37-.19-8.23,4.84-13.11,11.94-17.54-10.43,1.18-16.71,7.92-17.12,17.32S218.45,422.09,229.29,424Z" transform="translate(-22.09 -11.63)"/><path class="cls-1" d="M217,572c-27.06-1.31-47.64-12.81-59.8-36.8-12-23.78-9.64-47.08,5.14-69.2,1.81-2.71,3.29-3.66,6.85-2.33a24.54,24.54,0,0,0,33-20.55c.28-2.79,1.38-3.63,3.86-4,35.25-5.84,69.88,18.71,76.15,54,6.43,36.22-17.68,71.21-53.46,77.48C224.68,571.3,220.6,571.57,217,572Zm4.08-6.66c38.2-5,62.08-35.23,56.37-71.47-4.89-31-33.14-52-62-50.35,10.09,5,19.44,10.5,26.93,18.6,12.72,13.75,20.07,29.66,19,48.75s-10.78,33.29-25.43,44.57C231.29,559,226.23,561.9,221,565.34Zm-27.6-24.86c-20.85-9.29-30-24.81-26.52-47.49a38.09,38.09,0,0,0-5.07,5.69,34.19,34.19,0,0,0,15,52c1.33.54,3.5.89,4.42.19C185.36,547.74,189.13,544.22,193.43,540.48Z" transform="translate(-22.09 -11.63)"/><path class="cls-1" d="M158.05,452.81c-7.83-9.33-4.39-25.4,7-32.52a23.52,23.52,0,1,1-5.29,35.47,20,20,0,0,1-1.81-3.09c1,1,1.88,2,2.91,2.84,4.4,3.77,6.45,3.39,9.52-2-7-2.19-10.68-7-10.77-15.05C155.51,443.45,156.2,448.08,158.05,452.81Zm25,7.43a20.88,20.88,0,0,0,15.76-24.51c-2.06-10.89-12.44-18.46-23.1-16.86C198,428.64,197.58,448.86,183.07,460.24Z" transform="translate(-22.09 -11.63)"/><path class="cls-1" d="M78,137.58C50.36,139.85,24.89,117,22.28,87.46c-2.55-28.87,20.29-55.18,50.78-57s54.86,21.69,56.44,50.83A53.56,53.56,0,0,1,78,137.58ZM74.66,35.82c-34.43,2.18-50,28.91-48.55,52,1.57,24.66,22.62,45.56,46.57,45.55-19.45-11.5-32.45-27-32.67-50.1C39.77,59.22,54.87,45.67,74.66,35.82Zm41.77,59.4c14.82-11.61,12.51-36-5.47-45-1.18-.59-3.14-1.12-4-.56-3.42,2.14-6.55,4.73-8.65,6.31C103.52,62,109.89,67,112.84,73.58S115.43,88.37,116.43,95.22Z" transform="translate(-22.09 -11.63)"/><path class="cls-1" d="M221.62,49.47c.13,6.25-4.2,9.82-8.32,13.31-10.34,8.78-26.3,8.4-36.67-.65a28.91,28.91,0,0,1-5.31-37.54c7.19-11.39,22.55-16.09,35.17-10.77a28.17,28.17,0,0,1,16.73,32.93c-2.51-9.79-2.51-9.79-9.56-8.89,2.73,8.38.71,15.51-6.35,21.28C214.63,59.09,219.3,56,221.62,49.47Zm-9.47-29c-13.62-9.29-27.55-8.15-36.9,2.31-9.1,10.18-8.92,24.46.45,35.27C168.79,31.61,186.69,13.39,212.15,20.51Z" transform="translate(-22.09 -11.63)"/><path class="cls-1" d="M172.14,101.5c-6.4-6.38-8.93-13.83-6.57-22.48s8.15-13.82,16.76-16a1.6,1.6,0,0,1,2.21,1,8.2,8.2,0,0,0,12.77,2.3,1.28,1.28,0,0,1,1.86-.14,22.27,22.27,0,0,1-23.81,37.63C174.21,103.06,173.14,102.22,172.14,101.5Zm2.5-.73c10.57,7.31,23.25,5.17,30-5.08a20.06,20.06,0,0,0-4.08-26.33A30,30,0,0,1,203,80c.08,6.25-1.66,11.83-6.21,16.3s-10.12,5.83-16.27,5.35C178.6,101.49,176.7,101.08,174.64,100.77Zm-1.27-12.33c-3.08-7-1.87-12.85,4.06-17.69a13.72,13.72,0,0,0-2.53.27A11.41,11.41,0,0,0,167,87.25c.21.43.66,1,1.05,1C169.75,88.43,171.47,88.4,173.37,88.44Z" transform="translate(-22.09 -11.63)"/><path class="cls-1" d="M161.21,398a34.48,34.48,0,1,1,34.5-34.58A34.66,34.66,0,0,1,161.21,398Zm-1.54-65.08a30.73,30.73,0,0,0-30.43,31.22c.23,16.76,13.43,30.77,29.74,30.94-12.41-7.29-20.5-17.17-20.85-31.59C137.76,348.27,147.05,339.38,159.67,332.92Zm26.49,38.77c10.14-9.43,8.79-23.73-1.88-29.49a5.64,5.64,0,0,0-4.33.2c-1.81.83-3.31,2.31-5.32,3.78C184.58,351.69,188.67,359.77,186.16,371.69Z" transform="translate(-22.09 -11.63)"/><path class="cls-1" d="M270.49,186.6l-7-1.07c-6.76-3.78-11.68-9.14-14.16-16.57.28-2.58.56-5.15.85-7.73,2.09-7.33,6.44-12.64,14-14.67,3.1-.84,6.42-.87,9.64-1.26l-.24,0c1.46.7,2.9,1.45,4.38,2.11a19.24,19.24,0,0,1,10.57,23.7c.2-4.84-1.35-7-5.91-6.06,1.64,5.76-.72,10.34-4.43,15l8.7-3.31c-2.23,2.09-3.67,4.07-5.61,5.13C277.82,183.75,274.09,185.06,270.49,186.6Zm-15.3-9.89c-1.07-8.53-.07-15.37,5.57-20.91,5.88-5.76,12.88-5.44,21-3.28-8-6.8-17.21-6.78-24.35-.64S249.15,167.53,255.19,176.71Z" transform="translate(-22.09 -11.63)"/><path class="cls-1" d="M123.76,303.73c-21.47-25.25-28.44-53.25-17.2-84.18,11.14-30.65,33.95-48,66.08-53.34,3.92-.65,6-.11,7.81,4.17a30,30,0,0,0,46,12.25c2.73-2.07,4.4-1.8,6.84.07,34.72,26.58,41.79,78,15.51,113.21C221.81,332,170.39,339.73,134.84,313,130.86,310.05,127.2,306.63,123.76,303.73Zm9.37-1.92c36.41,29.92,83.4,25.92,111-9.51,23.62-30.35,18.64-73.08-6.93-97.48,4,13.22,6.89,26.15,5.94,39.61-1.63,22.87-9.68,42.75-27.65,57.72s-38.75,18.25-61.07,14.62C147.39,305.63,140.54,303.56,133.13,301.81Zm-.92-45.45c-9.15-26.39-3-47.55,20.19-63.43a47.2,47.2,0,0,0-9.32.24,41.84,41.84,0,0,0-33.81,56.92c.64,1.63,2.14,3.87,3.53,4.1C119,255.23,125.27,255.64,132.21,256.36Z" transform="translate(-22.09 -11.63)"/><path class="cls-1" d="M180.86,151.4c1.77-14.82,19-25.19,34.87-21a28.79,28.79,0,0,1-12,56.23c-14.82-2.37-25.67-16.41-24.08-31.26a24.84,24.84,0,0,1,1.24-4.2c0,1.66-.17,3.32-.1,5,.32,7.09,2.37,8.59,9.75,6.82-3.88-8.06-2.66-15.4,4.42-22.2C187.09,141.28,183.54,145.78,180.86,151.4Zm14.3,28.54a25.54,25.54,0,0,0,35.07-6.44c8-10.95,6.08-26.56-4.28-34.74C235.87,166.81,217.47,183.37,195.16,179.94Z" transform="translate(-22.09 -11.63)"/><path class="cls-1" d="M101.15,478.6c.13,6.25-4.2,9.82-8.32,13.31-10.34,8.78-26.3,8.4-36.67-.65a28.91,28.91,0,0,1-5.31-37.54C58.05,442.33,73.4,437.63,86,443a28.18,28.18,0,0,1,16.72,32.93c-2.51-9.79-2.51-9.79-9.56-8.89,2.73,8.38.71,15.51-6.35,21.28C94.17,488.22,98.83,485.08,101.15,478.6Zm-9.47-29c-13.62-9.29-27.55-8.15-36.9,2.31-9.09,10.18-8.91,24.46.45,35.27C48.32,460.74,66.22,442.52,91.68,449.64Z" transform="translate(-22.09 -11.63)"/></svg>